# xmcd
#
# Track frame offsets:
#	150
#	12592
#	25592
#	40317
#	66275
#	79640
#	111102
#	126267
#	146067
#	161015
#	182602
#	207192
#
# Disc length: 2963 seconds
#
# Revision: 1
# Processed by: cddbd v1.4PL0 Copyright (c) Steve Scherf et al.
# Submitted via: audiograbber 1.81.02
#
DISCID=a20b910c
DTITLE=Ian Stephen - King Of The Cross
DYEAR=1994
DGENRE=Country
TTITLE0=Jesus Saves White Trash
TTITLE1=Ground Breaking
TTITLE2=The Lights Are On
TTITLE3=God On The Mountain
TTITLE4=It'll Be Worth It All
TTITLE5=The Girl From Waterfall
TTITLE6=The Alcohol Of Fame
TTITLE7=One More For The Sky
TTITLE8=I'm A Poor Rich Man
TTITLE9=King Of The Cross
TTITLE10=Ship Of Love
TTITLE11=Perfect Harmony
EXTD=
EXTT0=
EXTT1=
EXTT2=
EXTT3=
EXTT4=
EXTT5=
EXTT6=
EXTT7=
EXTT8=
EXTT9=
EXTT10=
EXTT11=
PLAYORDER=
